<?xml version="1.0" encoding="utf-8"?>
<!-- Generator: Adobe Illustrator 16.0.0, SVG Export Plug-In . SVG Version: 6.00 Build 0)  -->
<!DOCTYPE svg PUBLIC "-//W3C//DTD SVG 1.1//EN" "http://www.w3.org/Graphics/SVG/1.1/DTD/svg11.dtd">
<svg version="1.1" id="Layer_1" xmlns="http://www.w3.org/2000/svg" xmlns:xlink="http://www.w3.org/1999/xlink" x="0px" y="0px"
	 width="512px" height="512px" viewBox="0 0 512 512" enable-background="new 0 0 512 512" xml:space="preserve">
<path id="currency-euro-2-icon" fill="#FFFFFF" d="M336.951,363.179c-32.09,0.002-56.066-15.223-69.088-43.338h111.729
	l25.771-134.271H268.525c11.94-26.111,32.477-38.424,63.426-38.424c27.949,0,56.111,9.668,75.186,15.646l22.551-92.916
	c-20.1-6.419-59.941-20.236-107.578-20.236c-47.106,0-88.858,14.158-120.739,40.947c-27.662,23.24-47.925,55.906-59.036,94.982
	h-33.851L82.313,319.84h57.435c23.19,84.519,99.479,142.521,189.616,142.521c46.088,0,78.545-14.695,96.014-21.81l-25.803-94.194
	C381.188,354.099,362.596,363.179,336.951,363.179z M329.363,432.36c-75.672,0-145.33-45.519-165.627-142.521h-45.067l4.373-22.957
	h39.204c-0.23-10.324,0.129-18.1,0.939-28.25h-34.33l4.416-23.064h32.617l2.686-11.623c18.246-79,74.207-124.307,153.535-124.307
	c22.344,0,46.43,3.553,71.771,10.574l-8.426,34.715c-19.832-5.229-37.445-7.783-53.504-7.783
	c-65.453,0-93.971,43.738-103.346,98.424h140.471l-4.597,23.064H226.791c-0.525,9.33-0.623,19.34-0.268,28.25H359.73l-4.332,22.957
	H228.484c11.664,70.377,55.971,103.34,108.467,103.338c13.914,0,28.152-2.246,42.512-6.69l9.836,35.909
	C369.521,429.015,349.418,432.36,329.363,432.36z"/>
</svg>
