<?xml version="1.0" encoding="utf-8"?>
<!-- Generated by IcoMoon.io -->
<!DOCTYPE svg PUBLIC "-//W3C//DTD SVG 1.1//EN" "http://www.w3.org/Graphics/SVG/1.1/DTD/svg11.dtd">
<svg version="1.1" xmlns="http://www.w3.org/2000/svg" xmlns:xlink="http://www.w3.org/1999/xlink" width="80" height="80" viewBox="0 0 80 80">
<path d="M10 70h70v10h-80v-80h10zM22.5 65c-4.142 0-7.5-3.358-7.5-7.5s3.358-7.5 7.5-7.5c0.221 0 0.439 0.012 0.655 0.030l8.062-13.436c-0.769-1.177-1.217-2.583-1.217-4.094 0-4.142 3.358-7.5 7.5-7.5s7.5 3.358 7.5 7.5c0 1.511-0.448 2.917-1.217 4.094l8.062 13.436c0.216-0.019 0.434-0.030 0.655-0.030 0.167 0 0.332 0.007 0.496 0.018l13.309-23.291c-0.823-1.204-1.305-2.659-1.305-4.227 0-4.142 3.358-7.5 7.5-7.5s7.5 3.358 7.5 7.5c0 4.142-3.358 7.5-7.5 7.5-0.167 0-0.332-0.007-0.496-0.018l-13.309 23.291c0.823 1.204 1.305 2.659 1.305 4.227 0 4.142-3.358 7.5-7.5 7.5s-7.5-3.358-7.5-7.5c0-1.511 0.448-2.917 1.217-4.094l-8.062-13.436c-0.216 0.019-0.434 0.030-0.655 0.030s-0.439-0.011-0.655-0.030l-8.062 13.436c0.769 1.177 1.217 2.583 1.217 4.094 0 4.142-3.358 7.5-7.5 7.5z" fill="#c4c2c2"></path>
</svg>
